<?xml version="1.0" encoding="utf-8"?>
<!-- Generator: Adobe Illustrator 19.0.0, SVG Export Plug-In . SVG Version: 6.00 Build 0)  -->
<svg version="1.1" id="Layer_1" xmlns="http://www.w3.org/2000/svg" xmlns:xlink="http://www.w3.org/1999/xlink" x="0px" y="0px"
	 viewBox="0 0 1440 1024" style="enable-background:new 0 0 1440 1024;" xml:space="preserve">
<style type="text/css">
	.st0{fill:url(#XMLID_10_);}
	.st1{fill:url(#XMLID_11_);}
	.st2{fill:url(#XMLID_12_);}
	.st3{fill:url(#XMLID_13_);}
	.st4{fill:url(#XMLID_14_);}
	.st5{fill:url(#XMLID_15_);}
	.st6{fill:url(#XMLID_16_);}
	.st7{fill:url(#XMLID_18_);}
	.st8{fill:url(#XMLID_20_);}
	.st9{fill:url(#XMLID_21_);}
	.st10{fill:url(#XMLID_22_);}
	.st11{fill:url(#XMLID_23_);}
	.st12{fill:url(#XMLID_24_);}
</style>
<g id="XMLID_1_">
	<g id="XMLID_8_">
		<linearGradient id="XMLID_10_" gradientUnits="userSpaceOnUse" x1="535.7435" y1="480.0701" x2="540.8202" y2="614.6035">
			<stop  offset="5.102040e-003" style="stop-color:#29B3E8"/>
			<stop  offset="0.5663" style="stop-color:#008CC0"/>
			<stop  offset="1" style="stop-color:#00649F"/>
		</linearGradient>
		<path id="XMLID_27_" class="st0" d="M531.2,447.5c-15.9,0-35,0-51,0v129.7c15.9,0,35,0,51,0c45.4,0,65.4-33.2,64.9-66
			C595.5,479.2,575.7,447.5,531.2,447.5z M531.2,553.7h-26.7v-83h26.7c28.2,0,40,20.2,40.6,40.4
			C572.3,532.2,560.7,553.7,531.2,553.7z"/>
		<linearGradient id="XMLID_11_" gradientUnits="userSpaceOnUse" x1="625.2" y1="476.6944" x2="630.2767" y2="611.2277">
			<stop  offset="5.102040e-003" style="stop-color:#29B3E8"/>
			<stop  offset="0.5663" style="stop-color:#008CC0"/>
			<stop  offset="1" style="stop-color:#00649F"/>
		</linearGradient>
		<rect id="XMLID_28_" x="614.4" y="447.5" class="st1" width="24.3" height="129.7"/>
		<linearGradient id="XMLID_12_" gradientUnits="userSpaceOnUse" x1="715.2606" y1="473.2959" x2="720.3373" y2="607.8292">
			<stop  offset="5.102040e-003" style="stop-color:#29B3E8"/>
			<stop  offset="0.5663" style="stop-color:#008CC0"/>
			<stop  offset="1" style="stop-color:#00649F"/>
		</linearGradient>
		<path id="XMLID_29_" class="st2" d="M721.1,524h33.2v23c-10.2,8.2-19.1,10.4-29.3,10.4c-32.2,0-44.7-22.1-44.7-43.4
			c0-26.7,16.9-47.8,44.7-47.8c11.3,0,24.3,4.6,33,13l15.2-15.6c-13.3-13.2-30.8-19.8-48.2-19.8c-45.8,0-68.6,33.7-68.6,70.2
			c0,34.1,19.8,66.2,68.6,66.2c22.8,0,38.9-8.7,51.7-23.3v-54.7h-55.6V524z"/>
		<linearGradient id="XMLID_13_" gradientUnits="userSpaceOnUse" x1="807.4672" y1="469.8164" x2="812.5439" y2="604.3497">
			<stop  offset="5.102040e-003" style="stop-color:#29B3E8"/>
			<stop  offset="0.5663" style="stop-color:#008CC0"/>
			<stop  offset="1" style="stop-color:#00649F"/>
		</linearGradient>
		<rect id="XMLID_30_" x="796.9" y="447.5" class="st3" width="24.3" height="129.7"/>
		<linearGradient id="XMLID_14_" gradientUnits="userSpaceOnUse" x1="896.1849" y1="466.4685" x2="901.2616" y2="601.0019">
			<stop  offset="5.102040e-003" style="stop-color:#29B3E8"/>
			<stop  offset="0.5663" style="stop-color:#008CC0"/>
			<stop  offset="1" style="stop-color:#00649F"/>
		</linearGradient>
		<path id="XMLID_31_" class="st4" d="M842.5,469.7h41.1v107.5h24.5V469.7h41.1v-22.2c-37.6,0-69.3,0-106.7,0V469.7z"/>
		<linearGradient id="XMLID_15_" gradientUnits="userSpaceOnUse" x1="1017.9163" y1="461.8749" x2="1022.993" y2="596.4083">
			<stop  offset="5.102040e-003" style="stop-color:#29B3E8"/>
			<stop  offset="0.5663" style="stop-color:#008CC0"/>
			<stop  offset="1" style="stop-color:#00649F"/>
		</linearGradient>
		<polygon id="XMLID_32_" class="st5" points="1008.9,447.5 950.7,577.2 977.2,577.2 1022.3,474.8 1067.1,577.2 1093.8,577.2 
			1035.6,447.5 		"/>
		<linearGradient id="XMLID_16_" gradientUnits="userSpaceOnUse" x1="1148.2426" y1="456.9569" x2="1153.3192" y2="591.4903">
			<stop  offset="5.102040e-003" style="stop-color:#29B3E8"/>
			<stop  offset="0.5663" style="stop-color:#008CC0"/>
			<stop  offset="1" style="stop-color:#00649F"/>
		</linearGradient>
		<polygon id="XMLID_33_" class="st6" points="1131.2,447.5 1106.8,447.5 1106.8,577.2 1197.9,577.2 1197.9,554.6 1131.2,554.6 		
			"/>
		<linearGradient id="XMLID_18_" gradientUnits="userSpaceOnUse" x1="1269.8762" y1="452.367" x2="1274.953" y2="586.9003">
			<stop  offset="5.102040e-003" style="stop-color:#29B3E8"/>
			<stop  offset="0.5663" style="stop-color:#008CC0"/>
			<stop  offset="1" style="stop-color:#00649F"/>
		</linearGradient>
		<path id="XMLID_36_" class="st7" d="M1272.2,444.9c-44.8,0-66.7,34.3-66.7,68.4c0,34.1,21.1,66.9,66.7,66.9s66.2-33.5,66.5-67.1
			C1339.1,479.2,1316.9,444.9,1272.2,444.9z M1272.2,557.8c-30.6,0-42.1-22.8-42.6-44.1c-0.6-21.9,12-46.5,42.6-46.5
			c30.6,0,42.8,24.5,42.4,46.3C1314.3,534.8,1302.8,557.8,1272.2,557.8z"/>
		<linearGradient id="XMLID_20_" gradientUnits="userSpaceOnUse" x1="1017.8281" y1="461.8782" x2="1022.9048" y2="596.4116">
			<stop  offset="5.102040e-003" style="stop-color:#FBB03C"/>
			<stop  offset="0.5663" style="stop-color:#F79421"/>
			<stop  offset="1" style="stop-color:#F15C27"/>
		</linearGradient>
		<polygon id="XMLID_9_" class="st8" points="1022.2,512.1 993.7,577.1 1050.7,577.1 		"/>
	</g>
	<g id="XMLID_2_">
		<linearGradient id="XMLID_21_" gradientUnits="userSpaceOnUse" x1="187.4692" y1="341.8996" x2="526.8152" y2="677.0214">
			<stop  offset="0" style="stop-color:#8DC641"/>
			<stop  offset="0.4909" style="stop-color:#67B545"/>
			<stop  offset="1" style="stop-color:#45B649"/>
		</linearGradient>
		<polygon id="XMLID_7_" class="st9" points="245.6,344.8 272.2,420.1 304.8,512.2 412.2,512.6 		"/>
		<linearGradient id="XMLID_22_" gradientUnits="userSpaceOnUse" x1="244.3048" y1="595.7249" x2="412.1573" y2="595.7249">
			<stop  offset="5.102040e-003" style="stop-color:#29B3E8"/>
			<stop  offset="0.5663" style="stop-color:#008CC0"/>
			<stop  offset="1" style="stop-color:#00649F"/>
		</linearGradient>
		<polygon id="XMLID_5_" class="st10" points="304.8,512.2 244.3,679.2 412.2,512.6 		"/>
		<linearGradient id="XMLID_23_" gradientUnits="userSpaceOnUse" x1="101.2221" y1="416.4038" x2="272.205" y2="416.4038">
			<stop  offset="5.102040e-003" style="stop-color:#FBB03C"/>
			<stop  offset="0.5663" style="stop-color:#F79421"/>
			<stop  offset="1" style="stop-color:#F15C27"/>
		</linearGradient>
		<polygon id="XMLID_3_" class="st11" points="245.6,344.8 101.2,488 185,454.8 272.2,420.1 		"/>
		<linearGradient id="XMLID_24_" gradientUnits="userSpaceOnUse" x1="151.9496" y1="595.4385" x2="277.9442" y2="595.4385">
			<stop  offset="0" style="stop-color:#EF3D25"/>
			<stop  offset="0.5" style="stop-color:#EB1F4E"/>
			<stop  offset="1" style="stop-color:#B66128"/>
		</linearGradient>
		<polygon id="XMLID_4_" class="st12" points="237.5,562.5 151.9,512.2 244.4,678.7 277.9,586.3 		"/>
	</g>
</g>
</svg>
